# xmcd CD database file
#
# Track frame offsets:
#	150
#	29137
#	50350
#	78514
#	101617
#	139539
#	173291
#	194551
#	216235
#
# Disc length: 3311 seconds
#
# Revision: 0
# Processed by: cddbd v1.5.2PL0 Copyright (c) Steve Scherf et al.
# Submitted via: CDex 1.60beta1-cs1
#
DISCID=790ced09
DTITLE=Tore Johansen - I S
DYEAR=1900
DGENRE=Jazz
TTITLE0=I S
TTITLE1=Item #8
TTITLE2=I am that
TTITLE3=Loose Psalm
TTITLE4=S Wanders
TTITLE5=Eiderdown
TTITLE6=New Room
TTITLE7=Falling Grace
TTITLE8=Item #7
EXTD=
EXTT0=
EXTT1=
EXTT2=
EXTT3=
EXTT4=
EXTT5=
EXTT6=
EXTT7=
EXTT8=
PLAYORDER=
